HIERARCHY
ROOT Hips
{
	OFFSET 0.000000 0.000000 0.000000
	CHANNELS 6 Xposition Yposition Zposition Zrotation Yrotation Xrotation 
	JOINT LHipJoint
	{
		OFFSET 0.000000 0.000000 0.000000
		CHANNELS 3 Zrotation Yrotation Xrotation
		JOINT LeftUpLeg
		{
			OFFSET 1.363060 -1.794630 0.839290
			CHANNELS 3 Zrotation Yrotation Xrotation
			JOINT LeftLeg
			{
				OFFSET 2.448110 -6.726130 0.000000
				CHANNELS 3 Zrotation Yrotation Xrotation
				JOINT LeftFoot
				{
					OFFSET 2.562200 -7.039590 0.000000
					CHANNELS 3 Zrotation Yrotation Xrotation
					JOINT LeftToeBase
					{
						OFFSET 0.157640 -0.433110 2.322550
						CHANNELS 3 Zrotation Yrotation Xrotation
						End Site
						{
							OFFSET 0.000000 0.000000 0.000000
						}
					}
				}
			}
		}
	}
	JOINT RHipJoint
	{
		OFFSET 0.000000 0.000000 0.000000
		CHANNELS 3 Zrotation Yrotation Xrotation
		JOINT RightUpLeg
		{
			OFFSET -1.305520 -1.794630 0.839290
			CHANNELS 3 Zrotation Yrotation Xrotation
			JOINT RightLeg
			{
				OFFSET -2.542530 -6.985550 0.000000
				CHANNELS 3 Zrotation Yrotation Xrotation
				JOINT RightFoot
				{
					OFFSET -2.568260 -7.056230 0.000000
					CHANNELS 3 Zrotation Yrotation Xrotation
					JOINT RightToeBase
					{
						OFFSET -0.164730 -0.452590 2.363150
						CHANNELS 3 Zrotation Yrotation Xrotation
						End Site
						{
							OFFSET 0.000000 0.000000 0.000000
						}
					}
				}
			}
		}
	}
	JOINT LowerBack
	{
		OFFSET 0.000000 0.000000 0.000000
		CHANNELS 3 Zrotation Yrotation Xrotation
		JOINT Spine
		{
			OFFSET 0.028270 2.035590 -0.193380
			CHANNELS 3 Zrotation Yrotation Xrotation
			JOINT Spine1
			{
				OFFSET 0.056720 2.048850 -0.042750
				CHANNELS 3 Zrotation Yrotation Xrotation
				JOINT Neck
				{
					OFFSET 0.000000 0.000000 0.000000
					CHANNELS 3 Zrotation Yrotation Xrotation
					JOINT Neck1
					{
						OFFSET -0.054170 1.746240 0.172020
						CHANNELS 3 Zrotation Yrotation Xrotation
						JOINT Head
						{
							OFFSET 0.104070 1.761360 -0.123970
							CHANNELS 3 Zrotation Yrotation Xrotation
							End Site
							{
								OFFSET 0.000000 0.000000 0.000000
							}
						}
					}
				}
				JOINT LeftShoulder
				{
					OFFSET 0.000000 0.000000 0.000000
					CHANNELS 3 Zrotation Yrotation Xrotation
					JOINT LeftArm
					{
						OFFSET 3.362410 1.200890 -0.311210
						CHANNELS 3 Zrotation Yrotation Xrotation
						JOINT LeftForeArm
						{
							OFFSET 4.983000 -0.000000 -0.000000
							CHANNELS 3 Zrotation Yrotation Xrotation
							JOINT LeftHand
							{
								OFFSET 3.483560 -0.000000 -0.000000
								CHANNELS 3 Zrotation Yrotation Xrotation
								JOINT LeftFingerBase
								{
									OFFSET 0.000000 0.000000 0.000000
									CHANNELS 3 Zrotation Yrotation Xrotation
									JOINT LeftHandIndex1
									{
										OFFSET 0.715260 -0.000000 -0.000000
										CHANNELS 3 Zrotation Yrotation Xrotation
										End Site
										{
											OFFSET 0.000000 0.000000 0.000000
										}
									}
								}
								JOINT LThumb
								{
									OFFSET 0.000000 0.000000 0.000000
									CHANNELS 3 Zrotation Yrotation Xrotation
									End Site
									{
										OFFSET 0.000000 0.000000 0.000000
									}
								}
							}
						}
					}
				}
				JOINT RightShoulder
				{
					OFFSET 0.000000 0.000000 0.000000
					CHANNELS 3 Zrotation Yrotation Xrotation
					JOINT RightArm
					{
						OFFSET -3.136600 1.374050 -0.404650
						CHANNELS 3 Zrotation Yrotation Xrotation
						JOINT RightForeArm
						{
							OFFSET -5.241900 -0.000000 -0.000000
							CHANNELS 3 Zrotation Yrotation Xrotation
							JOINT RightHand
							{
								OFFSET -3.444170 -0.000000 -0.000000
								CHANNELS 3 Zrotation Yrotation Xrotation
								JOINT RightFingerBase
								{
									OFFSET 0.000000 0.000000 0.000000
									CHANNELS 3 Zrotation Yrotation Xrotation
									JOINT RightHandIndex1
									{
										OFFSET -0.622530 -0.000000 -0.000000
										CHANNELS 3 Zrotation Yrotation Xrotation
										End Site
										{
											OFFSET 0.000000 0.000000 0.000000
										}
									}
								}
								JOINT RThumb
								{
									OFFSET 0.000000 0.000000 0.000000
									CHANNELS 3 Zrotation Yrotation Xrotation
									End Site
									{
										OFFSET 0.000000 0.000000 0.000000
									}
								}
							}
						}
					}
				}
			}
		}
	}
}
MOTION
Frames: 10
Frame Time: 0.008333
-18.445642 14.139416 -0.491875 -96.663043 83.757710 -60.688272 -6.675638 -1.956853 0.663329 -13.954310 -4.889400 -97.009031 0.671583 6.454869 74.339128 2.560631 8.250943 -17.421932 -1.085700 -0.000000 -12.244500 12.304522 -3.390769 -3.712782 11.471474 -9.054971 -12.852830 1.690111 -2.790167 45.643253 0.265414 5.277770 -8.003052 -0.089900 0.000000 -88.427901 -6.835972 1.319602 5.805432 -1.871236 1.763961 -1.570110 -3.290531 1.762027 0.661660 8.294215 -10.535795 -10.159355 -0.146507 0.070658 -1.199756 0.000000 0.000000 0.000000 5.715500 19.649781 3.292637 -64.260350 31.517255 18.342352 -0.108800 -88.730685 0.031274 -15.974631 -1.536044 0.237945 0.228719 0.141308 0.000000 0.000000 0.000000 0.000000 0.000000 0.000000 0.000000 -0.197063 -2.898406 1.181599 51.616393 25.088452 23.148139 178.774506 76.171228 -179.965424 3.642106 5.311946 0.186681 -0.001905 -0.528264 -0.000000 0.000000 0.000000 0.000000 0.000000 0.000000 0.000000 
-18.220803 14.102330 -0.494135 -95.817774 83.637798 -59.919449 -6.654803 -1.931026 0.552585 -14.098788 -4.560590 -96.768516 0.798074 6.551142 75.895461 2.620176 8.327801 -18.733778 -1.347800 0.000001 -10.745300 12.478209 -3.425893 -3.619219 11.258731 -9.100049 -13.035206 1.348086 -2.887237 46.844163 0.251260 4.934119 -5.019662 0.112600 0.000001 -88.879900 -7.110253 1.302492 5.777004 -1.973362 1.745835 -1.593120 -3.457182 1.745670 0.615300 8.452238 -10.325977 -10.131791 -0.238442 0.062988 -1.196542 0.000000 0.000000 0.000000 5.189921 19.545598 3.336646 -64.113488 30.381727 17.702045 -0.149389 -88.155988 0.031642 -15.661382 -1.476968 0.225139 0.216177 0.142683 0.000000 0.000000 0.000000 0.000000 0.000000 0.000000 0.000000 0.221358 -2.648148 1.162229 52.647188 24.837670 23.151926 178.807694 76.710322 -179.964274 3.830895 5.210459 0.193089 -0.006289 -0.525166 -0.000000 0.000000 0.000000 0.000000 0.000000 0.000000 0.000000 
-17.998987 14.069466 -0.496716 -94.837847 83.554612 -58.979646 -6.639720 -1.883546 0.456970 -14.258662 -4.274316 -96.475572 0.911926 6.636097 77.316196 2.699374 8.482531 -20.042988 -1.622800 0.000000 -9.790601 12.652723 -3.424849 -3.539629 11.045589 -9.180044 -13.440935 0.993623 -2.980607 48.267662 0.189866 4.456126 -2.005598 0.304900 0.000000 -88.422400 -7.391529 1.278236 5.747055 -2.078505 1.719850 -1.618994 -3.631597 1.721301 0.556838 8.605735 -10.092273 -10.097114 -0.340043 0.054482 -1.192386 0.000000 0.000000 0.000000 4.622529 19.401508 3.385312 -63.939435 29.110589 17.027942 -0.194274 -87.526384 0.032056 -15.330476 -1.395820 0.209440 0.202799 0.144123 0.000000 0.000000 0.000000 0.000000 0.000000 0.000000 0.000000 0.672308 -2.375436 1.138796 53.774998 24.515126 23.156383 178.853473 77.351466 -179.963683 3.941813 5.097867 0.194805 -0.008875 -0.521667 -0.000000 0.000000 0.000000 0.000000 0.000000 0.000000 0.000000 
-17.780922 14.040876 -0.499724 -93.793121 83.499796 -57.938710 -6.633146 -1.823245 0.374469 -14.417858 -4.021335 -96.146334 1.016491 6.710980 78.611513 2.791746 8.699673 -21.303713 -1.904799 0.000000 -9.427200 12.818650 -3.387160 -3.475281 10.857095 -9.274458 -14.053409 0.644201 -3.066337 49.898772 0.080578 3.808255 0.850898 0.447600 -0.000000 -86.880500 -7.667897 1.249659 5.720346 -2.183353 1.688866 -1.646052 -3.811005 1.691767 0.487311 8.750601 -9.842997 -10.058181 -0.448911 0.045406 -1.188270 0.000000 0.000000 0.000000 4.040144 19.216701 3.439926 -63.751859 27.687966 16.344109 -0.245249 -86.817775 0.032526 -14.990758 -1.294129 0.191346 0.188737 0.145703 0.000000 0.000000 0.000000 0.000000 0.000000 0.000000 0.000000 1.144342 -2.089719 1.110181 54.993512 24.110916 23.146898 178.912435 78.093164 -179.963670 3.973620 4.982037 0.192227 -0.009905 -0.517999 -0.000000 0.000000 0.000000 0.000000 0.000000 0.000000 0.000000 
-17.567117 14.016723 -0.503230 -92.744680 83.466915 -56.862729 -6.637057 -1.757846 0.301422 -14.567819 -3.789949 -95.789244 1.113171 6.777011 79.788901 2.890293 8.957722 -22.485836 -2.187500 -0.000000 -9.636600 12.969097 -3.315306 -3.429291 10.711115 -9.375203 -14.856705 0.314245 -3.145392 51.726420 -0.070503 2.960625 3.375407 0.499700 -0.000000 -84.262300 -7.928047 1.218370 5.704764 -2.284939 1.654466 -1.673278 -3.993636 1.658668 0.402907 8.881392 -9.580874 -10.012931 -0.563182 0.035883 -1.183658 0.000000 0.000000 0.000000 3.454717 18.974807 3.500086 -63.556357 26.126989 15.657419 -0.302646 -86.027659 0.033048 -14.643283 -1.171330 0.171060 0.174137 0.147490 0.000000 0.000000 0.000000 0.000000 0.000000 0.000000 0.000000 1.624348 -1.794416 1.076733 56.299983 23.613670 23.106506 178.984422 78.934333 -179.964208 3.932200 4.868322 0.186252 -0.009787 -0.514313 -0.000000 0.000000 0.000000 0.000000 0.000000 0.000000 0.000000 
-17.357605 13.997207 -0.506656 -91.519053 83.462119 -55.582434 -6.649711 -1.676997 0.236120 -14.731293 -3.570577 -95.409912 1.200110 6.838102 80.848134 2.989745 9.236093 -23.573456 -2.465200 0.000000 -10.346800 13.105569 -3.204339 -3.403502 10.590049 -9.492272 -15.851993 0.009262 -3.218844 53.751706 -0.253529 1.899408 5.429608 0.431400 0.000000 -80.757500 -8.187684 1.186767 5.700909 -2.387175 1.619168 -1.703653 -4.180294 1.624442 0.292541 8.998008 -9.294642 -9.950644 -0.682983 0.025706 -1.175296 0.000000 0.000000 0.000000 2.866684 18.635151 3.563465 -63.344076 24.493806 14.946863 -0.364331 -85.189635 0.033561 -14.277951 -1.025152 0.148477 0.159206 0.149461 0.000000 0.000000 0.000000 0.000000 0.000000 0.000000 0.000000 2.110233 -1.477024 1.042247 57.695965 23.006285 23.019244 179.068717 79.879335 -179.965249 3.825766 4.754790 0.177279 -0.008905 -0.510641 -0.000000 0.000000 0.000000 0.000000 0.000000 0.000000 0.000000 
-17.153378 13.982283 -0.510671 -90.300862 83.464074 -54.293862 -6.675818 -1.599649 0.170758 -14.883278 -3.338442 -95.006851 1.277330 6.894211 81.799175 3.083096 9.505045 -24.570539 -2.732100 0.000000 -11.427000 13.216991 -3.069180 -3.399809 10.535229 -9.601279 -17.003690 -0.261945 -3.295799 55.949203 -0.458536 0.598325 6.838958 0.224300 -0.000000 -76.522700 -8.414064 1.156741 5.721579 -2.481739 1.584533 -1.732007 -4.366918 1.590685 0.163103 9.092023 -8.999392 -9.875571 -0.805115 0.015223 -1.164450 0.000000 0.000000 0.000000 2.302645 18.211785 3.630017 -63.138864 22.758665 14.243372 -0.432694 -84.266081 0.034080 -13.900729 -0.856181 0.123995 0.144070 0.151731 0.000000 0.000000 0.000000 0.000000 0.000000 0.000000 0.000000 2.586657 -1.157681 1.004846 59.167676 22.305374 22.865372 179.165246 80.934660 -179.966742 3.665396 4.654623 0.166503 -0.007874 -0.507102 -0.000000 0.000000 0.000000 0.000000 0.000000 0.000000 0.000000 
-16.954077 13.971967 -0.515160 -88.995538 83.468514 -52.911422 -6.715453 -1.522611 0.101053 -15.035574 -3.076384 -94.576942 1.342026 6.948189 82.643005 3.166803 9.744224 -25.489004 -2.984500 0.000000 -12.732600 13.303218 -2.913054 -3.417970 10.542793 -9.700575 -18.301466 -0.502066 -3.381979 58.307346 -0.676969 -0.929947 7.519240 -0.104300 -0.000000 -71.847500 -8.609181 1.130136 5.769026 -2.568986 1.552325 -1.758101 -4.552458 1.559113 0.013705 9.162481 -8.693633 -9.783242 -0.928587 0.004431 -1.149586 0.000000 0.000000 0.000000 1.772441 17.696267 3.697406 -62.942828 20.949441 13.547048 -0.506924 -83.265466 0.034554 -13.503768 -0.662417 0.097613 0.128884 0.154303 0.000000 0.000000 0.000000 0.000000 0.000000 0.000000 0.000000 3.051407 -0.837142 0.966240 60.706666 21.520476 22.629041 179.272880 82.110716 -179.968637 3.460471 4.570753 0.154622 -0.007109 -0.503668 -0.000000 0.000000 0.000000 0.000000 0.000000 0.000000 0.000000 
-16.759830 13.966179 -0.520353 -87.592395 83.465660 -51.433979 -6.769947 -1.448969 0.021885 -15.189002 -2.765420 -94.114406 1.391908 7.001757 83.382639 3.238518 9.937001 -26.348570 -3.220500 0.000000 -14.111000 13.362411 -2.743127 -3.456272 10.619237 -9.779843 -19.728006 -0.715162 -3.483316 60.805098 -0.903641 -2.651207 7.427596 -0.506700 0.000000 -66.959200 -8.764904 1.107622 5.846125 -2.646833 1.523016 -1.780932 -4.735569 1.530143 -0.154401 9.207402 -8.378880 -9.670402 -1.052272 -0.006645 -1.129443 0.000000 0.000000 0.000000 1.282398 17.084292 3.763003 -62.760428 19.090372 12.857168 -0.585987 -82.196074 0.034943 -13.084146 -0.443356 0.069629 0.113868 0.157182 0.000000 0.000000 0.000000 0.000000 0.000000 0.000000 0.000000 3.501484 -0.520078 0.927984 62.300701 20.668986 22.296082 179.389650 83.415923 -179.970903 3.217096 4.506436 0.141834 -0.006902 -0.500283 -0.000000 0.000000 0.000000 0.000000 0.000000 0.000000 0.000000 
-16.570596 13.964692 -0.526359 -86.053139 83.447756 -49.831305 -6.840171 -1.379440 -0.070574 -15.346963 -2.390769 -93.613255 1.424959 7.056526 84.020597 3.297768 10.074521 -27.169954 -3.440000 -0.000000 -15.427700 13.394178 -2.564457 -3.511346 10.764788 -9.829201 -21.270145 -0.906641 -3.603329 63.419363 -1.136081 -4.504036 6.570555 -0.909500 0.000000 -61.998500 -8.877867 1.088931 5.952258 -2.714200 1.496242 -1.799501 -4.914792 1.503371 -0.336853 9.227523 -8.057375 -9.536130 -1.174952 -0.017933 -1.103368 0.000000 0.000000 0.000000 0.840499 16.384093 3.824259 -62.594746 17.197005 12.178014 -0.668681 -81.066143 0.035202 -12.638881 -0.199307 0.040339 0.099206 0.160364 0.000000 0.000000 0.000000 0.000000 0.000000 0.000000 0.000000 3.936836 -0.212099 0.891034 63.934946 19.773946 21.856519 179.512756 84.856791 -179.973542 2.935386 4.464627 0.128438 -0.007336 -0.496891 -0.000000 0.000000 0.000000 0.000000 0.000000 0.000000 0.000000 
